<?xml version="1.0" standalone="no"?>
<!DOCTYPE svg PUBLIC "-//W3C//DTD SVG 20010904//EN"
 "http://www.w3.org/TR/2001/REC-SVG-20010904/DTD/svg10.dtd">
<svg version="1.0" xmlns="http://www.w3.org/2000/svg"
 width="256.000000pt" height="256.000000pt" viewBox="0 0 256.000000 256.000000"
 preserveAspectRatio="xMidYMid meet">

<g transform="translate(0.000000,256.000000) scale(0.100000,-0.100000)"
fill="#000000" stroke="none">
<path d="M1765 2341 c-85 -33 -158 -70 -167 -84 -4 -6 -2 -19 3 -28 16 -30 10
-36 -41 -42 -27 -3 -66 -13 -85 -23 -26 -12 -42 -14 -62 -6 -35 11 -52 5 -95
-34 -32 -29 -41 -31 -128 -37 -172 -11 -354 -90 -459 -201 -19 -20 -40 -36
-47 -36 -7 0 -52 -25 -102 -55 l-90 -56 -5 -157 c-4 -86 -11 -186 -16 -221 -6
-45 -5 -93 4 -165 15 -114 30 -160 79 -253 33 -62 34 -68 25 -121 -9 -55 -8
-58 18 -81 16 -14 27 -28 26 -33 -6 -18 21 -115 39 -141 19 -27 19 -27 -1 -27
-45 0 -51 -9 -51 -80 0 -81 27 -210 46 -217 18 -7 137 33 207 70 59 31 68 48
47 88 -10 18 -7 19 37 19 26 0 67 9 90 20 35 15 47 17 72 7 27 -10 34 -8 77
26 38 29 56 37 90 37 74 0 228 37 307 73 78 36 115 60 202 133 28 22 91 66
142 98 l91 56 5 133 c2 72 10 168 17 212 17 111 8 275 -19 344 -11 30 -24 57
-29 60 -4 3 -21 28 -36 56 -24 45 -26 56 -20 112 6 59 5 64 -18 83 -18 14 -27
33 -32 67 -3 27 -15 65 -26 86 -20 36 -20 37 -1 37 32 0 51 28 51 75 0 55 -29
206 -42 223 -14 16 -21 15 -103 -17z m50 -51 c7 -12 -21 -74 -40 -90 -16 -13
-48 -6 -70 17 -14 14 -14 17 4 33 12 9 18 20 14 24 -3 3 3 6 15 6 11 0 24 5
27 10 8 13 42 13 50 0z m-161 -182 c30 -13 39 -36 30 -73 -5 -19 -12 -25 -24
-22 -12 3 -16 0 -13 -12 3 -11 -5 -22 -21 -31 -14 -7 -26 -17 -26 -21 0 -8 54
-49 64 -49 3 0 39 -20 80 -45 52 -32 82 -58 100 -88 15 -25 25 -35 26 -24 0 9
4 17 9 17 12 0 84 -140 77 -148 -3 -3 1 -13 9 -22 21 -23 45 -97 45 -139 0
-42 -23 -81 -48 -81 -50 0 -233 113 -232 144 0 6 5 3 11 -7 8 -13 14 -15 23
-7 18 14 8 57 -17 75 -18 12 -18 15 -4 29 8 9 17 21 19 27 3 8 18 4 47 -10
l43 -22 -8 23 c-4 13 -7 30 -6 38 1 22 -20 60 -30 54 -4 -3 -8 3 -8 13 0 26
-44 70 -79 78 -16 3 -37 18 -47 33 -24 37 -64 71 -91 78 -13 4 -23 9 -23 13 0
11 -47 31 -70 31 -11 0 -20 5 -20 10 0 6 -7 6 -19 -2 -27 -17 -16 -34 37 -59
26 -13 51 -29 55 -36 4 -7 17 -13 29 -13 17 0 18 -2 8 -15 -7 -8 -9 -15 -5
-15 4 0 2 -7 -5 -15 -10 -12 -10 -15 1 -15 8 0 20 -9 27 -21 7 -11 19 -19 25
-16 7 2 19 -11 28 -30 16 -32 16 -34 -3 -44 -18 -10 -19 -8 -13 13 5 18 4 20
-4 8 -7 -10 -14 -11 -18 -5 -5 6 -19 10 -33 9 -14 -1 -45 6 -70 16 -25 9 -74
23 -110 29 -100 20 -98 17 -57 59 43 44 47 73 12 96 -26 17 -26 17 -19 -11 4
-15 8 -30 10 -32 2 -2 -13 -16 -32 -32 -57 -45 -87 -46 -195 -3 -52 20 -113
39 -137 42 -110 13 -247 -108 -226 -200 7 -33 5 -33 -47 3 -14 10 -28 16 -31
14 -3 -3 -13 3 -22 14 -16 17 -16 22 -2 54 17 42 102 130 166 174 123 83 237
121 395 132 95 7 126 6 149 -5 35 -17 36 -17 36 -1 0 6 17 17 37 24 29 9 46 9
75 -2 37 -12 38 -12 44 11 5 19 13 24 40 24 18 0 44 -5 58 -12z m-626 -279
c42 -10 83 -34 71 -41 -2 -2 -29 -27 -60 -56 -37 -35 -66 -54 -87 -57 -17 -2
-43 -10 -57 -18 -25 -12 -25 -14 -9 -28 14 -11 16 -11 10 0 -6 9 -4 12 5 9 18
-6 25 -38 8 -38 -7 0 -29 18 -50 40 -21 22 -43 40 -48 40 -24 0 -23 56 2 88 8
11 12 11 18 0 6 -9 17 -5 41 19 32 31 69 51 96 52 7 1 34 -4 60 -10z m186 -56
c4 -5 11 -8 14 -8 4 -1 16 -5 27 -11 11 -6 47 -16 80 -23 100 -20 145 -33 145
-43 0 -5 4 -7 9 -3 5 3 12 1 16 -5 4 -6 -8 -10 -29 -10 -19 0 -42 -3 -52 -7
-13 -5 -15 -3 -10 8 4 8 1 6 -7 -3 -9 -12 -17 -14 -24 -7 -7 7 -15 6 -25 -5
-9 -8 -18 -12 -22 -9 -3 4 -6 1 -6 -6 0 -7 9 -9 26 -5 19 5 25 4 20 -5 -4 -6
-12 -11 -18 -11 -14 0 -68 -40 -68 -51 0 -15 67 -10 80 6 7 8 17 15 22 15 5 0
-5 -12 -22 -27 -27 -22 -30 -28 -18 -37 8 -6 17 -28 21 -48 4 -29 3 -36 -9
-31 -7 3 -11 10 -7 16 3 6 1 7 -5 3 -8 -4 -8 -13 -3 -24 29 -53 29 -68 -1
-129 l-21 -41 -56 26 c-31 15 -61 32 -67 37 -6 6 -52 32 -102 60 -51 27 -105
60 -120 72 l-27 22 50 -5 c41 -4 46 -2 29 7 -19 9 -21 18 -19 59 4 59 24 99
65 134 38 32 68 33 105 4 24 -18 26 -26 21 -60 l-6 -39 25 17 c50 32 59 83 23
121 -12 13 -31 23 -43 23 -12 0 -30 7 -41 15 -18 14 -17 14 12 15 17 0 34 -3
38 -7z m486 -43 c19 -19 19 -20 1 -20 -10 0 -21 9 -24 20 -3 11 -3 20 -1 20 2
0 13 -9 24 -20z m114 -86 c6 -15 4 -15 -11 -3 -10 7 -20 15 -22 16 -2 2 3 3
11 3 9 0 19 -7 22 -16z m-1176 -65 c3 -31 18 -52 46 -62 6 -2 8 -7 4 -11 -3
-4 -16 -2 -28 4 -25 13 -25 13 -34 -20 -6 -19 -5 -21 3 -10 8 11 11 12 11 2 0
-7 -6 -19 -13 -27 -8 -7 -20 -47 -27 -88 -12 -71 -14 -75 -42 -81 -21 -4 -33
-15 -41 -36 -22 -59 -30 -31 -24 83 7 112 26 205 49 236 38 50 50 59 71 52 14
-5 22 -19 25 -42z m832 18 c0 -4 -6 -2 -14 5 -8 7 -12 17 -9 22 5 8 23 -12 23
-27z m4 -47 c-7 -34 11 -42 21 -10 3 11 12 20 19 20 14 0 15 -35 1 -47 -4 -5
-5 -2 -1 5 10 17 -4 15 -25 -4 -16 -14 -18 -14 -24 5 -3 12 -3 30 0 41 10 30
15 24 9 -10z m-522 -36 c-2 -10 -5 -21 -7 -23 -4 -3 -75 38 -75 43 0 1 19 2
43 1 35 -1 41 -5 39 -21z m648 -4 c0 -5 -5 -10 -11 -10 -5 0 -7 5 -4 10 3 6 8
10 11 10 2 0 4 -4 4 -10z m-880 -24 c0 -2 -7 -9 -15 -16 -13 -11 -14 -10 -9 4
5 14 24 23 24 12z m140 -16 c0 -5 -2 -10 -4 -10 -3 0 -8 5 -11 10 -3 6 -1 10
4 10 6 0 11 -4 11 -10z m123 -61 c38 -21 72 -39 75 -39 4 -1 20 -12 36 -25
l30 -24 -27 -6 c-14 -4 -30 -4 -35 -1 -10 6 -105 19 -132 19 -8 -1 -34 -3 -56
-6 -52 -6 -73 5 -55 27 8 9 10 16 5 16 -5 0 -3 4 5 9 11 7 12 13 4 23 -6 7
-10 21 -10 31 0 14 6 17 24 12 13 -3 23 -1 23 5 0 16 35 4 113 -41z m505 6
c-1 -13 -6 -21 -10 -17 -5 5 -6 16 -2 25 9 24 14 21 12 -8z m62 5 c0 -5 -5
-10 -11 -10 -5 0 -7 5 -4 10 3 6 8 10 11 10 2 0 4 -4 4 -10z m-887 -20 c-5
-21 -33 -49 -33 -33 0 9 29 53 35 53 2 0 1 -9 -2 -20z m64 -22 c-3 -8 -6 -5
-6 6 -1 11 2 17 5 13 3 -3 4 -12 1 -19z m803 18 c0 -3 -4 -8 -10 -11 -5 -3
-10 -1 -10 4 0 6 5 11 10 11 6 0 10 -2 10 -4z m267 -32 c-9 -9 -27 6 -27 22 0
13 2 13 16 -1 9 -9 14 -18 11 -21z m-27 -7 c0 -5 -4 -5 -10 -2 -5 3 -10 14
-10 23 0 15 2 15 10 2 5 -8 10 -19 10 -23z m-270 -29 c0 -40 3 -49 12 -40 7 7
30 12 51 12 35 0 38 2 26 16 -7 9 -22 20 -34 24 -19 8 -19 8 5 18 64 24 71 25
77 3 4 -18 12 -21 47 -19 28 2 40 -1 39 -9 -2 -7 0 -12 5 -12 20 3 32 -2 32
-15 0 -8 6 -17 13 -20 9 -3 7 -8 -5 -15 -10 -7 -14 -19 -11 -33 3 -13 3 -20
-1 -16 -4 3 -23 2 -42 -4 -29 -7 -39 -6 -64 12 l-30 21 -33 -25 -33 -25 -32
25 c-33 26 -77 94 -50 78 11 -6 11 -5 0 8 -9 11 -10 18 -2 23 5 3 10 15 10 26
0 10 5 19 10 19 6 0 10 -23 10 -52z m233 45 c-7 -2 -19 -2 -25 0 -7 3 -2 5 12
5 14 0 19 -2 13 -5z m-943 -22 c0 -5 -9 -11 -21 -14 -16 -4 -18 -3 -8 9 13 16
29 19 29 5z m119 -49 c4 -7 27 -16 52 -21 36 -7 40 -10 24 -16 -11 -5 -22 -11
-25 -15 -3 -3 -34 -12 -70 -19 -36 -7 -70 -17 -77 -23 -8 -6 -23 -4 -47 7 -60
29 -39 41 31 20 7 -2 21 7 32 20 10 14 24 25 30 25 10 0 15 13 12 32 -1 11 30
2 38 -10z m1105 -103 c-9 -57 -17 -113 -19 -124 -4 -30 -36 -105 -45 -105 -5
0 -15 6 -22 13 -7 6 -25 18 -40 26 -24 12 -28 20 -27 55 0 23 -1 52 -3 65 -2
15 3 26 12 29 12 4 13 2 3 -9 -7 -7 -13 -17 -13 -22 0 -5 23 10 50 33 53 44
79 84 73 110 -3 12 34 41 45 34 2 -1 -5 -48 -14 -105z m-101 84 c-7 -2 -19 -2
-25 0 -7 3 -2 5 12 5 14 0 19 -2 13 -5z m-753 -8 c0 -6 -112 -115 -118 -115
-3 0 1 6 7 13 6 8 7 17 3 21 -4 4 -2 6 3 4 6 -1 28 16 49 40 34 37 56 52 56
37z m-390 -15 c0 -5 -5 -10 -11 -10 -5 0 -7 5 -4 10 3 6 8 10 11 10 2 0 4 -4
4 -10z m1027 -22 c-3 -8 -6 -5 -6 6 -1 11 2 17 5 13 3 -3 4 -12 1 -19z m160 7
c8 -23 0 -24 -19 -3 -15 15 -16 18 -3 18 9 0 18 -7 22 -15z m-754 -37 c7 -7
14 -26 15 -43 5 -43 12 -46 71 -35 30 5 68 10 85 9 29 -1 29 -1 6 -8 l-24 -7
24 -17 c18 -13 20 -17 8 -17 -9 0 -20 5 -23 10 -4 6 -11 7 -17 4 -7 -5 -3 -10
10 -15 17 -7 22 -17 22 -46 l0 -38 17 33 c19 38 28 37 13 -2 -16 -43 -12 -56
14 -56 44 0 36 -16 -9 -18 -66 -3 -213 74 -215 112 0 5 7 3 15 -4 12 -10 19
-10 27 -2 16 16 -31 33 -55 20 -13 -7 -26 -5 -44 7 -19 13 -36 15 -72 9 -25
-4 -53 -8 -61 -9 -8 -1 -19 -3 -25 -5 -24 -6 -65 1 -65 11 0 7 10 9 26 5 15
-4 32 -2 41 5 8 7 33 12 56 11 52 -3 131 32 123 54 -3 8 1 14 9 14 9 0 12 6 9
15 -7 18 3 20 19 3z m-563 -18 c0 -5 -6 -10 -14 -10 -8 0 -21 -3 -30 -6 -10
-4 -16 -1 -16 8 0 8 12 15 30 16 17 1 30 -2 30 -8z m-74 -26 c-7 -27 33 -102
74 -139 12 -11 29 -38 39 -61 25 -56 96 -160 139 -202 18 -19 31 -36 29 -39
-3 -2 -27 9 -53 26 -33 20 -57 45 -73 76 l-24 46 -11 -26 c-10 -24 -12 -25
-32 -10 -22 15 -77 105 -95 153 -8 24 -8 25 5 10 7 -10 21 -18 31 -18 17 0 17
2 -2 23 -45 49 -65 123 -47 171 10 27 27 18 20 -10z m868 -60 c9 -24 7 -34 -7
-28 -7 2 -13 13 -13 24 0 24 11 26 20 4z m-359 -36 c6 -4 2 -8 -7 -8 -10 0
-18 7 -18 17 0 9 3 12 8 7 4 -5 12 -12 17 -16z m420 -108 c-10 -11 -21 -18
-23 -15 -3 3 3 12 14 20 27 20 30 18 9 -5z m-623 -52 c-9 -9 -15 -9 -24 0 -9
9 -7 12 12 12 19 0 21 -3 12 -12z m583 2 c3 -5 1 -10 -4 -10 -6 0 -11 5 -11
10 0 6 2 10 4 10 3 0 8 -4 11 -10z m415 -5 c17 -9 30 -19 30 -24 0 -19 -93
-123 -153 -171 -141 -114 -336 -182 -511 -179 -62 1 -67 3 -51 15 10 8 38 14
61 14 23 0 72 6 110 14 38 8 98 19 132 25 74 12 98 26 81 48 -9 10 -15 11 -23
3 -5 -5 -17 -10 -25 -10 -10 0 -7 6 9 17 14 10 28 17 32 16 4 -2 5 4 2 11 -4
9 0 14 11 12 8 -1 16 -6 16 -12 0 -5 5 -15 11 -21 7 -9 7 -13 -1 -13 -6 0 -11
-4 -11 -9 0 -12 57 7 67 22 4 6 0 8 -10 4 -10 -4 -17 -2 -17 4 0 6 9 9 20 6
35 -9 180 168 180 221 0 26 2 27 40 7z m-1120 -461 c0 -2 -9 0 -20 6 -11 6
-20 13 -20 16 0 2 9 0 20 -6 11 -6 20 -13 20 -16z"/>
<path d="M1923 1430 c2 -27 22 -48 35 -35 3 3 0 5 -6 5 -7 0 -12 11 -12 24 0
14 -4 27 -10 31 -5 3 -8 -7 -7 -25z"/>
<path d="M880 1726 c0 -9 30 -14 35 -6 4 6 -3 10 -14 10 -12 0 -21 -2 -21 -4z"/>
<path d="M1325 1710 c-3 -4 1 -12 8 -18 16 -13 69 -12 64 1 -4 14 -65 28 -72
17z"/>
<path d="M1152 1126 c-24 -13 -20 -26 9 -26 17 0 34 26 21 34 -4 2 -17 -1 -30
-8z"/>
<path d="M1290 1050 c-6 -11 -8 -20 -6 -20 3 0 10 9 16 20 6 11 8 20 6 20 -3
0 -10 -9 -16 -20z"/>
</g>
</svg>
